<?xml version="1.0" standalone="no"?>
<!DOCTYPE svg PUBLIC "-//W3C//DTD SVG 20010904//EN"
 "http://www.w3.org/TR/2001/REC-SVG-20010904/DTD/svg10.dtd">
<svg version="1.0" xmlns="http://www.w3.org/2000/svg"
 width="2534.000000pt" height="2534.000000pt" viewBox="0 0 2534.000000 2534.000000"
 preserveAspectRatio="xMidYMid meet">
<metadata>
Created by potrace 1.14, written by Peter Selinger 2001-2017
</metadata>
<g transform="translate(0.000000,2534.000000) scale(0.100000,-0.100000)"
fill="#000000" stroke="none">
<path d="M6810 20952 l0 -1037 2345 0 2346 0 -4 -3780 c-3 -2079 -7 -3811 -10
-3850 -2 -38 -8 -122 -11 -185 -4 -63 -9 -135 -11 -160 -3 -25 -7 -74 -10
-110 -10 -113 -26 -244 -41 -335 -3 -16 -7 -41 -9 -55 -9 -61 -49 -242 -76
-339 -115 -413 -300 -731 -598 -1028 -230 -231 -571 -480 -966 -706 -125 -71
-143 -81 -240 -134 -55 -29 -111 -60 -125 -68 -39 -24 -702 -354 -820 -409
-58 -27 -150 -71 -205 -96 -55 -26 -185 -87 -290 -135 -104 -48 -208 -95 -230
-106 -22 -10 -139 -64 -260 -119 -121 -55 -219 -104 -218 -109 15 -61 264
-589 364 -771 201 -365 476 -780 726 -1092 l94 -116 97 43 c113 50 289 130
382 173 508 235 710 332 1020 487 299 149 446 226 760 398 537 293 1049 633
1439 952 175 144 460 423 593 580 108 129 188 232 188 244 0 5 4 11 8 13 13 5
95 126 175 260 172 285 333 668 416 992 12 44 25 93 31 110 9 29 42 175 55
241 17 92 55 316 60 355 3 25 10 77 15 115 5 39 12 95 15 125 3 30 7 71 10 90
2 19 7 71 10 115 4 44 8 96 10 115 2 19 6 98 10 175 4 77 10 163 12 190 3 28
6 2290 8 5028 l3 4977 -3534 0 -3534 0 0 -1038z"/>
<path d="M16149 21988 c0 -2 -1 -2316 -3 -5143 -2 -2827 -6 -5187 -9 -5245
-19 -332 -23 -390 -31 -480 -4 -41 -9 -97 -12 -125 -4 -48 -10 -110 -19 -185
-3 -19 -7 -60 -10 -90 -3 -30 -7 -66 -10 -80 -2 -14 -7 -49 -10 -79 -4 -30 -8
-61 -10 -70 -1 -9 -6 -36 -10 -61 -26 -170 -55 -330 -81 -450 -14 -63 -27
-122 -29 -131 -21 -99 -94 -366 -131 -484 -14 -44 -28 -87 -29 -95 -2 -8 -27
-78 -55 -155 -332 -911 -846 -1636 -1625 -2294 -66 -56 -124 -105 -130 -109
-5 -4 -37 -29 -70 -56 -178 -142 -443 -332 -639 -459 -27 -18 -60 -39 -72 -47
-13 -8 -79 -50 -146 -92 -68 -43 -128 -82 -135 -88 -7 -5 -14 -10 -17 -10 -3
0 -193 -111 -256 -150 -20 -12 -116 -68 -160 -93 -122 -69 -287 -160 -355
-197 -44 -23 -93 -50 -110 -60 -16 -9 -86 -47 -155 -83 -69 -35 -179 -93 -245
-128 -145 -76 -1111 -558 -1177 -588 -27 -12 -48 -24 -48 -26 0 -8 435 -285
447 -285 4 0 14 -6 22 -14 24 -20 422 -252 591 -344 36 -19 88 -47 115 -62 28
-15 73 -40 100 -55 180 -99 1012 -515 1030 -515 24 0 986 480 1150 574 22 13
81 45 130 71 77 42 299 166 345 195 8 5 51 30 95 56 615 361 1253 826 1718
1253 108 98 453 445 528 531 182 206 279 324 412 505 53 72 100 135 105 140 4
6 30 44 57 85 28 41 53 77 56 80 5 4 25 36 99 155 36 58 170 284 193 325 80
146 244 479 294 600 8 19 21 49 28 65 94 204 313 853 350 1035 2 8 12 51 23
95 20 75 85 368 96 431 20 106 56 316 61 354 3 25 10 70 15 100 5 30 12 84 16
120 4 36 8 67 9 70 1 3 5 39 9 80 4 41 9 86 11 100 2 14 6 57 10 95 3 39 7 90
10 115 10 113 17 217 31 505 7 147 13 10861 6 10883 -3 9 -250 12 -1188 12
-651 0 -1184 -1 -1185 -2z"/>
</g>
</svg>
